<?xml version="1.0" standalone="no"?><!DOCTYPE svg PUBLIC "-//W3C//DTD SVG 1.1//EN" "http://www.w3.org/Graphics/SVG/1.1/DTD/svg11.dtd"><svg t="1542196515163" class="icon" style="" viewBox="0 0 1024 1024" version="1.1" xmlns="http://www.w3.org/2000/svg" p-id="10340" xmlns:xlink="http://www.w3.org/1999/xlink" width="32" height="32"><defs><style type="text/css"></style></defs><path d="M955.423647 330.144162 852.08507 620.606557c-14.410198 40.402175-52.888558 67.575048-95.845928 67.575048L352.7843 688.181605c-48.409546 0-90.355891-34.474163-99.758028-81.935104l-68.38346-345.936847-22.624277-103.757109L86.263178 156.552545c-12.062733 0-21.815865-9.717316-21.815865-21.74014 0-12.06478 9.757225-21.775956 21.815865-21.775956l93.305059 0c0.681522 0 1.266853 0.344854 1.914606 0.38988 1.534959 0.141216 2.963495 0.417509 4.41659 0.87595 1.311879 0.417509 2.506077 0.848321 3.685949 1.502213 1.27504 0.652869 2.347464 1.416256 3.463891 2.300392 1.124614 0.88516 2.078335 1.77032 3.000334 2.845815 0.838088 1.039679 1.569752 2.152013 2.214435 3.345188 0.730641 1.294482 1.351787 2.609431 1.807159 4.025687 0.194428 0.653893 0.661056 1.161453 0.811482 1.842974l22.620184 103.833857 663.96097 0c23.387663 0 45.404096 11.373025 58.870806 30.463826 13.546527 19.09387 16.878412 43.642986 9.080819 65.701374l0 0L955.423647 330.144162zM910.746098 289.578258c-5.387707-7.647167-13.865799-12.063757-23.263843-12.063757L232.475214 277.514501l63.304791 320.290747c5.376451 27.122731 29.355585 46.796816 57.008388 46.796816L756.247328 644.602064c24.549116 0 46.561455-15.531741 54.78986-38.606273l103.334483-290.461371c3.118014-8.828063 1.842974-18.286482-3.617387-25.961278l0 0L910.746098 289.578258zM336.95273 735.414349c48.482201 0 87.895863 39.35431 87.895863 87.75874 0 48.409546-39.422871 87.790462-87.895863 87.790462-48.445362 0-87.853907-39.388079-87.853907-87.790462C249.099846 774.777869 288.504298 735.414349 336.95273 735.414349L336.95273 735.414349 336.95273 735.414349zM336.95273 867.434152c24.426319 0 44.291762-19.851117 44.291762-44.246737 0-24.376177-19.868513-44.200688-44.291762-44.200688-24.399713 0-44.246737 19.826558-44.246737 44.200688C292.705993 847.600431 312.562227 867.434152 336.95273 867.434152L336.95273 867.434152 336.95273 867.434152zM725.312782 735.414349c48.457642 0 87.862094 39.35431 87.862094 87.75874 0 48.409546-39.399335 87.790462-87.862094 87.790462-48.431036 0-87.835488-39.388079-87.835488-87.790462C637.477294 774.777869 676.890956 735.414349 725.312782 735.414349L725.312782 735.414349 725.312782 735.414349zM725.312782 867.434152c24.431435 0 44.296879-19.851117 44.296879-44.246737 0-24.376177-19.874653-44.200688-44.296879-44.200688-24.426319 0-44.274366 19.826558-44.274366 44.200688C681.033299 847.600431 700.881346 867.434152 725.312782 867.434152L725.312782 867.434152 725.312782 867.434152zM725.312782 867.434152" p-id="10341"></path></svg>