<?xml version="1.0" standalone="no"?><!DOCTYPE svg PUBLIC "-//W3C//DTD SVG 1.1//EN" "http://www.w3.org/Graphics/SVG/1.1/DTD/svg11.dtd"><svg t="1541075728093" class="icon" style="" viewBox="0 0 1039 1024" version="1.1" xmlns="http://www.w3.org/2000/svg" p-id="2078" xmlns:xlink="http://www.w3.org/1999/xlink" width="64.9375" height="64"><defs><style type="text/css"></style></defs><path d="M841.998968 877.525123c-40.116113 0-72.750535 32.622546-72.750535 72.726783 0 40.092361 32.634422 72.714908 72.750535 72.714908 40.133926 0 72.780224-32.622546 72.780224-72.714908 0-40.104237-32.646298-72.726784-72.780224-72.726783zM330.506654 876.527564c-40.638644 0-73.712467 33.073823-73.712467 73.724342 0 40.644581 33.067885 73.700591 73.712467 73.700591 40.674271 0 73.759969-33.056009 73.759969-73.700591 0-40.650519-33.085699-73.724342-73.759969-73.724342zM1010.265754 144.69946c-19.939299-22.50445-47.372165-34.902681-77.192047-34.902681H198.347932a42.455626 42.455626 0 0 0-5.730025 0.427526l-1.716038-9.898396C183.930833 44.070721 146.148295 0 89.679345 0h-46.64181c-23.727648 0-43.037535 19.298012-43.037535 43.025659 0 23.739523 19.309887 43.049411 43.037535 43.049411h46.64181c12.908885 0 26.203731 12.683247 27.896018 26.607504l35.407398 204.737059 62.062405 436.752599c6.840403 56.409572 56.017674 94.655263 111.952219 94.655263l5.183743-0.023751h589.40284c23.727648 0 43.025659-13.336411 43.025659-37.040307 0-23.751399-19.298012-37.135312-43.025659-37.135312H321.059535c-12.303225 0-30.894632-18.068877-32.497852-31.518107l-3.271755-23.05667 1.454773-5.848782 620.255908-46.837759s23.38919-2.505773 42.66345-24.469879c20.723096-18.50234 28.038526-43.32849 31.345909-69.888491l57.662459-329.63379 0.047502-0.261265c4.524641-37.046244-5.842844-72.922733-28.454175-98.413922z m-38.96417 80.267853l-51.659293 335.48851-0.053441 0.267203c-1.692287 13.948009-7.523256 35.87055-19.832418 40.899909l-9.417429 1.995117L280.533711 652.106533c-1.526027 0.118757-3.14706 0.314706-4.815596 0.587847L226.226137 304.089161 205.408036 184.019901h727.665671c5.082799 0 21.138745 7.855775 24.606449 11.810383 5.914098 6.715708 14.850562 18.140131 13.621428 29.137029z" p-id="2079" fill="#d81e06"></path></svg>